/* XPM */
static char * gnank_xpm[] = {
"32 32 340 2",
"  	c None",
". 	c #010801",
"+ 	c #010A01",
"@ 	c #000500",
"# 	c #021A02",
"$ 	c #075C08",
"% 	c #096C0A",
"& 	c #096E0A",
"* 	c #053405",
"= 	c #000000",
"- 	c #032A04",
"; 	c #0A7D0B",
"> 	c #0B830C",
", 	c #074B07",
"' 	c #032603",
") 	c #0A740B",
"! 	c #0B7E0C",
"~ 	c #064506",
"{ 	c #011001",
"] 	c #053805",
"^ 	c #043805",
"/ 	c #021802",
"( 	c #040004",
"_ 	c #2C0505",
": 	c #760E0E",
"< 	c #7E0E0E",
"[ 	c #720D0D",
"} 	c #2E0606",
"| 	c #030B01",
"1 	c #064B07",
"2 	c #09650A",
"3 	c #043405",
"4 	c #010109",
"5 	c #090F43",
"6 	c #0F1A75",
"7 	c #0F1A77",
"8 	c #0F1A76",
"9 	c #0C145A",
"0 	c #040721",
"a 	c #380707",
"b 	c #9C1313",
"c 	c #A41414",
"d 	c #A11414",
"e 	c #540A0A",
"f 	c #061602",
"g 	c #09700A",
"h 	c #0B7F0C",
"i 	c #075B08",
"j 	c #02020C",
"k 	c #0F186D",
"l 	c #15229A",
"m 	c #111B7D",
"n 	c #04061B",
"o 	c #360707",
"p 	c #9A1313",
"q 	c #A21414",
"r 	c #9E1313",
"s 	c #510A0A",
"t 	c #061502",
"u 	c #0B810C",
"v 	c #0C7B0F",
"w 	c #126A1E",
"x 	c #206F3D",
"y 	c #2A7B51",
"z 	c #257648",
"A 	c #1D5C37",
"B 	c #0E1B24",
"C 	c #0F196B",
"D 	c #152197",
"E 	c #142196",
"F 	c #152298",
"G 	c #111B7A",
"H 	c #120202",
"I 	c #4D0909",
"J 	c #550B0B",
"K 	c #4A0909",
"L 	c #220505",
"M 	c #030601",
"N 	c #043104",
"O 	c #0D5314",
"P 	c #398570",
"Q 	c #63CAC0",
"R 	c #6DDBCF",
"S 	c #6ED8CA",
"T 	c #6ED9CD",
"U 	c #72DBD8",
"V 	c #63BEC1",
"W 	c #34636F",
"X 	c #12205C",
"Y 	c #0B1352",
"Z 	c #0B1250",
"` 	c #080D3B",
" .	c #080F11",
"..	c #3E7C80",
"+.	c #75E0E3",
"@.	c #7EE7EA",
"#.	c #82E4E7",
"$.	c #85E4E6",
"%.	c #85E2E4",
"&.	c #8BF6F9",
"*.	c #8DFBFE",
"=.	c #7FE9E8",
"-.	c #386D6F",
";.	c #060E10",
">.	c #080404",
",.	c #3B484A",
"'.	c #74B4B7",
").	c #87BABC",
"!.	c #87B1B3",
"~.	c #8CABAD",
"{.	c #8DA5A8",
"].	c #8CA4A6",
"^.	c #81B4B6",
"/.	c #8DEAEC",
"(.	c #71D1C6",
"_.	c #5BBCA7",
":.	c #27664A",
"<.	c #084F0C",
"[.	c #075308",
"}.	c #054106",
"|.	c #141010",
"1.	c #618385",
"2.	c #90B9BC",
"3.	c #98ACAE",
"4.	c #99A0A2",
"5.	c #9F989A",
"6.	c #A59193",
"7.	c #9F8F91",
"8.	c #939799",
"9.	c #81CDCC",
"0.	c #66C6A7",
"a.	c #63D4AE",
"b.	c #46A282",
"c.	c #12791C",
"d.	c #09680A",
"e.	c #021502",
"f.	c #17191A",
"g.	c #6DA1A3",
"h.	c #92B4B7",
"i.	c #9BA5A7",
"j.	c #A19A9B",
"k.	c #A59092",
"l.	c #A98587",
"m.	c #A98486",
"n.	c #979091",
"o.	c #7EC6C5",
"p.	c #66C2A2",
"q.	c #62CFA6",
"r.	c #5AC4A2",
"s.	c #207638",
"t.	c #096A0A",
"u.	c #021702",
"v.	c #1A3031",
"w.	c #6EB7B9",
"x.	c #87B9BB",
"y.	c #8BAEAF",
"z.	c #8DA3A4",
"A.	c #949698",
"B.	c #95888A",
"C.	c #988283",
"D.	c #81A7AF",
"E.	c #9DE5E7",
"F.	c #77C5B9",
"G.	c #67C8AF",
"H.	c #67CFBA",
"I.	c #317159",
"J.	c #065007",
"K.	c #053D05",
"L.	c #152A2B",
"M.	c #65C2C5",
"N.	c #7EE2E5",
"O.	c #89DCDE",
"P.	c #8BD5D7",
"Q.	c #90CED0",
"R.	c #90C4C6",
"S.	c #96BEC0",
"T.	c #ABEBED",
"U.	c #AFFCFE",
"V.	c #9CEFF3",
"W.	c #85DFE2",
"X.	c #81E0E3",
"Y.	c #3B6766",
"Z.	c #000400",
"`.	c #2B2904",
" +	c #68630B",
".+	c #726E0C",
"++	c #63600A",
"@+	c #2A2604",
"#+	c #080D0D",
"$+	c #43808C",
"%+	c #6CC3DA",
"&+	c #6EB7D2",
"*+	c #6EAECA",
"=+	c #6EA4C1",
"-+	c #6C99BC",
";+	c #6B99BA",
">+	c #7AB0BE",
",+	c #A4F0F3",
"'+	c #8ED1C2",
")+	c #92D7B6",
"!+	c #8BD9BF",
"~+	c #55754E",
"{+	c #726D0C",
"]+	c #5D5909",
"^+	c #4A4708",
"/+	c #CFC615",
"(+	c #D9D016",
"_+	c #D4CB16",
":+	c #6C670B",
"<+	c #0B0F25",
"[+	c #2B5287",
"}+	c #5EAFD2",
"|+	c #66B4DD",
"1+	c #66A8D8",
"2+	c #649FD4",
"3+	c #6395CF",
"4+	c #689FC2",
"5+	c #8CD9D8",
"6+	c #9ED9A8",
"7+	c #AAEBAD",
"8+	c #87BD87",
"9+	c #A7AB27",
"0+	c #AFA812",
"a+	c #262404",
"b+	c #0B0E2B",
"c+	c #152581",
"d+	c #396B99",
"e+	c #65B6DD",
"f+	c #66AEDA",
"g+	c #65A3D5",
"h+	c #659FD4",
"i+	c #6AABC6",
"j+	c #8BDBDA",
"k+	c #9BDDB1",
"l+	c #9FE2A8",
"m+	c #86A556",
"n+	c #C5BF18",
"o+	c #B0A912",
"p+	c #262504",
"q+	c #282704",
"r+	c #979110",
"s+	c #A49D11",
"t+	c #938D0F",
"u+	c #3F3D07",
"v+	c #07081C",
"w+	c #132262",
"x+	c #407993",
"y+	c #5EAECB",
"z+	c #66B6D4",
"A+	c #68B0D3",
"B+	c #68ACCE",
"C+	c #6DBACC",
"D+	c #8AEEF0",
"E+	c #82CEB9",
"F+	c #658759",
"G+	c #82831A",
"H+	c #A29B11",
"I+	c #A39D11",
"J+	c #7B760D",
"K+	c #110F02",
"L+	c #121002",
"M+	c #0F0D01",
"N+	c #010108",
"O+	c #030314",
"P+	c #0C171F",
"Q+	c #305A5D",
"R+	c #529699",
"S+	c #5FA8AB",
"T+	c #67B6B8",
"U+	c #67BCBE",
"V+	c #63A6A6",
"W+	c #44584F",
"X+	c #302614",
"Y+	c #211C07",
"Z+	c #1E1B03",
"`+	c #1D1A03",
" @	c #0D0D02",
".@	c #4B0847",
"+@	c #50094D",
"@@	c #4F094C",
"#@	c #50094C",
"$@	c #460843",
"%@	c #1C031B",
"&@	c #1E3A3B",
"*@	c #172B2B",
"=@	c #162626",
"-@	c #2E2E22",
";@	c #4C321B",
">@	c #482F18",
",@	c #2F2314",
"'@	c #490846",
")@	c #CB17C2",
"!@	c #D618CC",
"~@	c #D018C7",
"{@	c #680B64",
"]@	c #47301A",
"^@	c #52341B",
"/@	c #3E2A17",
"(@	c #140E09",
"_@	c #4A0847",
":@	c #D118C8",
"<@	c #DC19D2",
"[@	c #D718CD",
"}@	c #6F0C6A",
"|@	c #372817",
"1@	c #55371D",
"2@	c #4E321A",
"3@	c #312315",
"4@	c #350632",
"5@	c #BC15B4",
"6@	c #C816BF",
"7@	c #B815B0",
"8@	c #2D2315",
"9@	c #45301A",
"0@	c #55361C",
"a@	c #452D18",
"b@	c #221F15",
"c@	c #240423",
"d@	c #2B0429",
"e@	c #280426",
"f@	c #250424",
"g@	c #32271C",
"h@	c #4E331A",
"i@	c #4F331A",
"j@	c #2C2621",
"k@	c #412C19",
"l@	c #54361C",
"m@	c #442C18",
"n@	c #2D2115",
"o@	c #342718",
"p@	c #4D331B",
"q@	c #4F321A",
"r@	c #372515",
"s@	c #3D2918",
"t@	c #51341B",
"u@	c #3D2A18",
"v@	c #2B2723",
"w@	c #120E09",
"x@	c #352616",
"y@	c #302417",
"                                                                ",
"                        . + + + + + + @                         ",
"                      # $ % & & & & & * =                       ",
"                      - ; > > > > > > , =                       ",
"                      ' ) ! ! ! ! ! ! ~ =                       ",
"                      { - ] ^ ] ^ ] ] /                         ",
"      = = = = = = =     = = ( = = = = =     = = = = = = =       ",
"    _ : < < < < < [ } | 1 2 2 2 2 2 2 3 4 5 6 7 7 7 7 8 9 0     ",
"    a b c c c c c d e f g > > > > h > i j k l l l l l l m n     ",
"    o p q q q q q r s t & u v w x y z A B C D E D F F F G n     ",
"    H I J J J J J K L M N O P Q R S T U V W X Y Z Z Z Z `       ",
"                         ...+.@.#.$.%.&.*.=.-.;.= = = = =       ",
"                      >.,.'.).!.~.{.].^./.(._.:.<.[.[.[.}.      ",
"                      |.1.2.3.4.5.6.7.8.9.0.a.b.c.> > > d.e.    ",
"                      f.g.h.i.j.k.l.m.n.o.p.q.r.s.> > > t.u.    ",
"                      v.w.x.y.z.A.B.C.D.E.F.G.H.I.J.J.J.K.      ",
"      = = = = = = =   L.M.N.O.P.Q.R.S.T.U.V.W.X.Y.@ @ @ Z.      ",
"    `. +.+.+.+.+.+++@+#+$+%+&+*+=+-+;+>+,+'+)+!+~+.+.+{+]+      ",
"    ^+/+(+(+(+(+(+_+:+<+[+}+|+1+2+3+3+4+5+6+7+8+9+(+(+(+0+a+    ",
"    ^+/+(+(+(+(+(+_+:+b+c+d+e+f+1+g+h+i+j+k+l+m+n+(+(+(+o+p+    ",
"    q+r+s+s+s+s+s+t+u+v+9 w+x+y+z+A+B+C+D+E+F+G+H+s+s+I+J+      ",
"      K+L+L+L+L+L+M+    N+O+P+Q+R+S+T+U+V+W+X+Y+Z+Z+Z+`+ @      ",
"      .@+@+@+@@@#@$@%@            &@*@=@-@;@>@,@                ",
"    '@)@!@!@!@!@!@~@{@                    ]@^@/@(@              ",
"    _@:@<@<@<@<@<@[@}@                    |@1@2@3@              ",
"    4@5@6@6@6@6@6@7@@@                    8@9@0@a@b@            ",
"      c@d@e@d@d@e@f@                        g@h@i@3@            ",
"                                            j@k@l@m@n@          ",
"                                              o@p@q@r@          ",
"                                                s@t@u@v@        ",
"                                                w@x@y@          ",
"                                                                "};
